<svg width="32" height="32" viewBox="0 0 32 32" fill="none" xmlns="http://www.w3.org/2000/svg">
<path d="M15.923 10.8167C15.688 11.5048 15.5103 12.2817 15.3813 13.1816C15.0913 15.2046 15.1 17.2497 15.4058 19.0955C15.5595 20.0241 15.7795 20.823 16.076 21.5276C16.5815 20.1182 16.733 18.6588 16.7783 17.8899C16.901 15.8103 16.761 13.9097 16.3625 12.2405C16.2398 11.7273 16.0923 11.2495 15.923 10.8167Z" fill="#F9F6E0"/>
<path d="M16 0.0644531C7.1635 0.0644531 0 7.21354 0 16.0323C0 24.851 7.1635 32.0001 16 32.0001C24.8365 32.0001 32 24.851 32 16.0323C32 7.21354 24.8365 0.0644531 16 0.0644531ZM24.6772 25.0728C23.3945 25.7083 21.8532 26.0483 20.3535 26.0483C19.8637 26.0483 19.3785 26.0119 18.908 25.9378C17.6932 25.7464 16.6447 25.2652 15.7892 24.5074C14.5482 25.457 12.9023 25.9954 11.1425 26.0256C8.95925 26.0588 7.247 25.5858 6.0505 24.6062C4.43225 23.2822 4.08025 21.2313 4.07 19.7435C4.0595 18.2278 4.40875 16.1154 6.133 14.662C7.457 13.5465 9.3955 12.9243 11.5913 12.9096C11.8043 12.9083 12.0907 12.9417 12.1782 13.1112C12.228 13.2072 12.2075 13.319 12.1177 13.4432C11.8635 13.7938 11.2037 13.9283 10.8475 13.9308C9.0815 13.9427 7.87125 14.4889 7.039 15.649C5.89325 17.2473 5.8885 19.5282 6.26625 21.129C6.61175 22.5913 7.469 23.7362 8.6805 24.3527C9.90475 24.975 11.548 25.1926 12.8665 24.9064C13.6703 24.7317 14.3715 24.2894 14.9523 23.591C14.9083 23.5314 14.865 23.4705 14.8225 23.4082C13.9112 22.0679 13.394 20.3151 13.2415 18.05C12.9743 14.0857 13.5462 11.0598 14.9405 9.05458C14.8207 8.90214 14.7018 8.76542 14.5783 8.63842C13.7828 7.81808 12.751 7.29762 11.5937 7.13296C10.756 7.01395 8.682 6.86525 7.52575 8.06932C7.2035 8.40464 6.64625 8.53588 6.267 8.54611C6.26325 8.54661 5.761 8.55709 5.6545 8.31682C5.62425 8.24896 5.61575 8.13893 5.74725 8.00195C7.44925 6.22978 10.4512 5.86127 12.5062 6.09006C13.984 6.25148 15.2627 6.80112 16.2115 7.6806C17.6372 6.52743 19.4005 6.1664 20.636 6.0671C21.533 5.99525 24.592 5.8962 26.2732 7.64617C26.318 7.69308 26.4465 7.86323 26.2112 8.08828C25.8787 8.40639 24.781 8.76741 24.4525 8.4261C23.239 7.16265 21.0662 6.87597 19.4492 7.15167C18.9777 7.23275 18.5858 7.3852 18.1785 7.64567C17.7715 7.9054 17.395 8.24995 17.058 8.67036C17.7917 9.73471 18.2817 11.0783 18.5552 12.7746C18.915 15.0071 18.9132 17.2842 18.5495 19.3608C18.2797 20.9007 17.7805 22.1884 17.065 23.1893C17.0802 23.2081 17.0958 23.227 17.1118 23.2457C18.029 24.3118 19.3388 24.9353 20.7998 25.0007C22.3685 25.071 23.488 24.7627 24.328 24.0311C25.6257 22.9002 25.9205 21.1165 25.9392 19.8194C25.958 18.51 25.7137 16.6852 24.442 15.4265C23.4795 14.4734 22.0465 13.9425 20.407 13.932C20.0803 13.9295 19.8883 13.8634 19.8198 13.7287C19.7715 13.6329 19.7922 13.5218 19.8817 13.3983C20.1262 13.0605 20.7628 12.9108 21.1435 12.9108H21.1535C23.6375 12.9268 25.4707 13.6371 26.6027 15.0216C27.8392 16.5338 28.258 18.8471 27.723 21.2103C27.3365 22.9199 26.2545 24.2919 24.6765 25.0728H24.6772Z" fill="#F9F6E0"/>
</svg>
