<svg width="434" height="100" viewBox="0 0 434 100" fill="none" xmlns="http://www.w3.org/2000/svg">
<path d="M68.5353 16.8687C68.5353 24.4292 61.9685 30.5582 53.868 30.5582C45.7674 30.5582 39.2007 24.4292 39.2007 16.8687C39.2007 8.10741 45.7674 3.1792 53.868 3.1792C61.9685 3.1792 68.5353 8.10741 68.5353 16.8687Z" fill="white"/>
<path d="M103.737 25.1145C104.311 24.4438 107.29 24.2027 107.648 29.5806C109.526 57.7499 80.9097 80.4272 53.868 80.4273L53.8681 59.1297C54.3215 59.1297 55.4759 58.9151 55.4759 56.278C55.4759 53.6409 60.333 28.6028 96.7097 28.6028C102.27 28.6028 102.844 26.1581 103.737 25.1145Z" fill="white"/>
<path d="M3.99899 25.1145C3.42511 24.4438 0.446251 24.2027 0.0877113 29.5806C-1.79032 57.7499 26.8262 80.4272 53.868 80.4273L53.8678 59.1297C53.4144 59.1297 52.26 58.9151 52.26 56.278C52.26 53.6409 47.4029 28.6028 11.0262 28.6028C5.46572 28.6028 4.89184 26.1581 3.99899 25.1145Z" fill="white"/>
<path d="M172.212 80.7292C182.578 80.7292 191.674 77.2389 196.962 73.0082C199.5 70.8929 200.241 69.4121 200.241 66.9795V51.9606C200.241 47.4126 206.058 47.2011 206.058 44.98V44.5569C206.058 43.605 205.212 42.9704 203.837 42.9704L183.953 42.8646C182.578 42.8646 181.52 43.4992 181.52 44.5569V44.98C181.52 47.2011 188.289 47.4126 188.289 51.8548V69.2006C185.328 70.9987 180.674 72.2679 175.28 72.2679C160.578 72.2679 147.569 56.0855 147.569 34.4032C147.569 19.9132 156.03 9.01914 167.136 9.01914C183.953 9.01914 184.693 29.0091 194.529 29.0091C198.02 29.0091 200.346 26.6822 200.346 23.0862C200.346 14.4133 188.395 3.62502 170.52 3.62502C150.742 3.62502 134.982 18.7497 134.982 42.3358C134.982 62.9604 151.588 80.7292 172.212 80.7292Z" fill="white"/>
<path d="M212.672 79.6716H228.749C230.124 79.6716 231.076 79.0369 231.076 78.085V77.7677C231.076 75.3351 226.739 75.0178 226.739 70.8929V2.14428C226.739 0.557775 225.365 -0.711431 222.932 0.452011L212.249 5.74036C211.192 6.2692 210.451 6.69226 210.451 7.64417V7.96147C210.451 9.86528 214.365 10.7114 214.365 15.1536V70.8929C214.365 75.0178 210.451 75.3351 210.451 77.7677V78.085C210.451 79.0369 211.297 79.6716 212.672 79.6716Z" fill="white"/>
<path d="M240.258 79.6716H256.334C257.709 79.6716 258.661 79.0369 258.661 78.085V77.662C258.661 75.3351 254.325 74.912 254.325 70.7871V30.0668C254.325 28.3745 252.95 27.1053 250.517 28.2687L239.941 33.5571C238.777 34.1917 238.037 34.6148 238.037 35.4609V35.7782C238.037 37.682 241.95 38.7397 241.95 43.0761V70.7871C241.95 74.912 238.037 75.3351 238.037 77.662V78.085C238.037 79.0369 238.883 79.6716 240.258 79.6716ZM239.306 12.1922C239.306 16.8459 242.796 20.1247 248.085 20.1247C253.267 20.1247 256.652 16.8459 256.652 12.1922C256.652 7.64417 253.267 4.25962 248.085 4.25962C242.796 4.25962 239.306 7.64417 239.306 12.1922Z" fill="white"/>
<path d="M336.998 79.7773H352.545C353.814 79.7773 354.766 79.2485 354.766 78.2966V77.8735C354.766 75.5466 351.17 75.0178 350.959 70.7871L349.69 51.2202C348.526 33.8744 340.065 27.8457 329.911 27.8457C322.507 27.8457 316.161 31.6533 313.411 38.3166C309.815 31.5475 303.152 27.8457 295.537 27.8457C288.979 27.8457 283.479 31.2302 280.412 36.4128V30.1726C280.412 28.3745 279.249 27.1053 277.028 28.2687L266.239 33.2398C265.076 33.7686 264.336 34.2975 264.336 35.1436V35.4609C264.336 37.7878 268.989 38.1051 268.989 42.5473V70.8929C268.989 75.0178 264.759 75.5466 264.759 77.8735V78.2966C264.759 79.2485 265.711 79.7773 267.085 79.7773H283.479C284.854 79.7773 285.701 79.2485 285.701 78.2966V77.8735C285.701 75.5466 281.47 75.0178 281.47 70.8929L281.364 45.5088C281.681 38.4224 285.912 32.9225 292.47 32.9225C298.816 32.9225 303.575 38.9512 303.575 49.7395V70.8929C303.575 75.0178 299.873 75.5466 299.873 77.8735V78.2966C299.873 79.2485 300.825 79.7773 302.2 79.7773H317.536C318.911 79.7773 319.757 79.2485 319.757 78.2966V77.8735C319.757 75.5466 316.056 75.0178 316.056 70.8929V50.4798C316.056 48.6818 315.95 46.9895 315.633 45.403C315.95 38.2109 320.392 32.9225 326.209 32.9225C332.873 32.9225 336.786 37.7878 337.421 50.9029L338.478 70.8929C338.69 75.0178 334.776 75.5466 334.776 77.8735V78.2966C334.776 79.2485 335.623 79.7773 336.998 79.7773Z" fill="white"/>
<path d="M360.482 99.6615C367.04 99.6615 370.847 96.7001 373.174 92.0463C374.866 88.556 375.712 85.2772 375.712 79.6716V30.0668C375.712 28.3745 374.232 27.1053 371.905 28.2687L360.905 33.5571C359.742 34.1917 359.107 34.6148 359.107 35.4609V35.7782C359.107 37.8936 363.02 38.6339 363.02 43.0761V76.0755C363.02 81.4696 367.357 83.7965 367.357 89.931C367.357 92.9982 365.559 95.2193 362.809 95.2193C356.674 95.2193 360.165 84.9599 352.444 84.9599C349.271 84.9599 347.05 87.0752 347.05 90.2483C347.05 96.277 352.549 99.6615 360.482 99.6615ZM359.636 12.1922C359.636 16.8459 363.126 20.1247 368.414 20.1247C373.597 20.1247 376.982 16.8459 376.982 12.1922C376.982 7.64417 373.597 4.25962 368.414 4.25962C363.126 4.25962 359.636 7.64417 359.636 12.1922Z" fill="white"/>
<path d="M425.433 80.3062C429.981 80.3062 434 79.6716 434 77.662C434 74.912 428.923 77.0274 428.183 70.1525L426.067 49.8452C424.587 36.2013 416.02 27.8457 402.693 27.8457C391.376 27.8457 383.126 33.0283 383.126 39.6916C383.126 42.6531 385.136 44.5569 388.309 44.5569C394.972 44.5569 392.857 31.7591 402.693 31.7591C410.097 31.7591 412.635 38.1051 413.798 50.3741L414.01 52.4894C411.154 50.2683 406.924 48.8933 401.741 48.8933C391.059 48.8933 382.386 54.3932 382.491 64.7584C382.491 75.1236 390.741 80.7292 402.27 80.7292C409.779 80.7292 414.539 77.8735 416.971 73.9601C417.395 79.1427 420.039 80.3062 425.433 80.3062ZM394.972 63.2777C394.972 56.9316 399.097 52.9125 404.914 52.9125C410.52 52.9125 414.539 56.7201 414.962 62.7488L415.279 66.0276C415.597 71.739 411.683 76.7101 405.76 76.7101C399.203 76.7101 394.972 70.4698 394.972 63.2777Z" fill="white"/>
</svg>
